<svg width="25" height="25" viewBox="0 0 25 25" fill="none" xmlns="http://www.w3.org/2000/svg">
<path fill-rule="evenodd" clip-rule="evenodd" d="M12.5 25C19.4036 25 25 19.4036 25 12.5C25 5.59644 19.4036 0 12.5 0C5.59644 0 0 5.59644 0 12.5C0 19.4036 5.59644 25 12.5 25Z" fill="#6FA2A7"/>
<path fill-rule="evenodd" clip-rule="evenodd" d="M12.674 11.7984C11.6975 11.7984 6.6665 8.9455 6.6665 8.9455V8.5C6.6665 7.948 7.1145 7.5 7.6675 7.5H17.6805C18.234 7.5 18.682 7.948 18.682 8.5L18.674 9C18.674 9 13.6975 11.7984 12.674 11.7984ZM12.6741 13.1735C13.7446 13.1735 18.6741 10.5 18.6741 10.5L18.6821 16.5C18.6821 17.052 18.2341 17.5 17.6806 17.5H7.66756C7.11506 17.5 6.66656 17.052 6.66656 16.5L6.67456 10.5C6.67406 10.5 11.6976 13.1735 12.6741 13.1735Z" fill="white"/>
</svg>
