<?xml version="1.0" encoding="UTF-8"?>
<!DOCTYPE svg PUBLIC "-//W3C//DTD SVG 1.1//EN" "http://www.w3.org/Graphics/SVG/1.1/DTD/svg11.dtd">
<!-- Creator: CorelDRAW 2021 (64-Bit) -->
<svg xmlns="http://www.w3.org/2000/svg" xml:space="preserve" width="109.882mm" height="134.032mm" version="1.1" shape-rendering="geometricPrecision" text-rendering="geometricPrecision" image-rendering="optimizeQuality" fill-rule="evenodd" clip-rule="evenodd"
viewBox="0 0 10988.2 13403.2"
 xmlns:xlink="http://www.w3.org/1999/xlink"
 xmlns:xodm="http://www.corel.com/coreldraw/odm/2003">
 <g id="Слой_x0020_1">
  <metadata id="CorelCorpID_0Corel-Layer"/>
  <g id="_2456393066176">
   <path fill="#1084CB" d="M5301.35 4155.59c82.03,112.2 38.91,1347 38.31,1490.23l210 -14.66c-2.79,302.29 -176.49,564.64 -107.5,878.67 53.49,243.47 156.16,63.8 371.56,369.1l119.44 137.65c5.89,3.15 559.36,181.86 470.53,-157.71 -80.65,-308.28 -313.73,-960.57 -200.72,-1382.97 43.15,-161.31 335.12,-268.12 360.64,-552.46 25.23,-281.06 -250.43,-451.25 -342.41,-583.95l163.46 60.54c21.96,-176.45 58.98,-352.98 60.87,-565.64l-40.62 -372.34c-1.15,-7.21 6.05,-27.78 -3.35,-71.77 -138.1,29.03 -420.74,266.8 -553.11,360.96 -121.49,86.41 -479.72,310.78 -547.1,404.35z"/>
   <path fill="#FB9C2B" d="M143.47 2038.6c436.13,-67.35 5062.61,-1680.68 5296.82,-1689.91 139.16,-5.48 2320.46,726.72 2647.34,833.91 414.97,136.08 2427.7,817.33 2678.08,856 -135.18,-96.04 -5190.44,-2029.4 -5298.24,-2034.55 -78.67,-3.76 -5154.42,1914.07 -5324,2034.55z"/>
   <path fill="#FB9C2B" d="M11.02 10858.1l5192.21 2453.01c148.19,68.12 200.94,137.04 351.69,66.41 907.08,-424.94 1828.18,-915.06 2730.57,-1365.8 891.67,-445.38 1838.47,-934.33 2713.74,-1360.86 -402.83,107.37 -4641.18,2069.55 -5426.31,2387.62 -193.3,78.31 -493.69,-106.16 -687.06,-187.04l-2097.78 -865.48c-455.24,-182.4 -917.02,-375.75 -1373.41,-566.61 -346.1,-144.75 -1088.2,-492.88 -1403.65,-561.25z"/>
   <path fill="#137CC5" d="M999.8 9823.35l232.5 5.53 6.06 -1254.98 208.65 1256.91 225.69 0.28c34.71,-282.87 94.23,-960.44 203.82,-1169.69l12.99 1155.42 228.91 15.78 0 -1743.68c-662.91,-21.99 -330.24,10.6 -519.63,725.3l-187.45 -726.74 -411.41 1.96 -0.13 1733.91z"/>
   <path fill="#137CC5" d="M9396.06 8965.66c-73.04,-118.87 -78.77,-312.27 -99.2,-451.42 -73.18,-498.58 26.33,-429.16 -476,-429.16l-0.03 1746.01 233.05 -9.07 35.07 -1046.2c60.1,152.75 148.63,860.33 176.92,1036.42l227.74 22.3c36.12,-306.73 106.67,-986.3 208.93,-1218.66l7.39 1211.49 229.96 -2.59 -1.5 -1733.42 -391.46 -7.36 -150.87 881.66z"/>
   <path fill="#2352A1" d="M3827.41 5086.57c80.63,30.59 45.43,137.29 46.45,241.32l106.29 55.44c153.76,308.55 146.99,430.57 160.93,816.8 146.8,74.11 240.76,246.1 375.15,387.93 186.76,11.5 187.18,-122.64 195.44,-214.22 8.06,-89.43 14.27,-277.66 3.89,-411.94 0.02,-13.87 -5.47,-89.58 -5.31,-93.79 0.25,-6.63 0.37,-19.17 0.89,-25.8l13.18 -60.84 0.79 -113.09c-49.19,-47.39 -32.91,-18.27 -70.86,-65.69 -60.94,-76.14 -25.73,-79.88 -16.54,-281.34 0.44,-9.74 1.1,-40.2 0.62,-51.69 -7.15,-170.11 -60.06,-200.6 -15.48,-281.63l71.99 -60.48c-106.08,-88.23 -55.75,-143.26 -74.66,-331.93 -146.48,73.49 -715.78,386.34 -792.77,490.95z"/>
   <path fill="#1B67B2" d="M4620.18 4595.62c18.91,188.67 -31.42,243.7 74.66,331.93l-71.99 60.48c-44.58,81.03 8.33,111.52 15.48,281.63 0.48,11.49 -0.18,41.95 -0.62,51.69 -9.19,201.46 -44.4,205.2 16.54,281.34 37.95,47.42 21.67,18.3 70.86,65.69l-0.79 113.09c249.96,-6.01 404.13,-73.87 615.34,-135.65 0.6,-143.23 43.72,-1378.03 -38.31,-1490.23 -120.25,45.99 -588.73,363.21 -681.17,440.03z"/>
   <path fill="#137CC5" d="M7081.57 9831.09l232.49 0 -0.06 -916.57 208.06 -9.25 0.06 922.1 232.97 -1.27 -1.48 -1736.07 -215.86 -5.05 -17.66 590.66 -206.06 -9.04 -6.11 -581.98 -201.89 0.23c-64.85,212.17 -24.46,1429.5 -24.46,1746.24z"/>
   <path fill="#137CC5" d="M2601.73 8336.49c249.67,-44.06 187.56,95.69 185.16,330.05 -1.85,181.1 14.65,369.37 -13.16,557.69l-176.71 -10.74 4.71 -877zm-236.69 1494.6l233.27 -12.36 -0.58 -349.02c518.68,-5.81 420.88,-305.59 420.88,-979.11 0,-455.4 -210.88,-405.52 -653.86,-405.52l0.29 1746.01z"/>
   <polygon fill="#137CC5" points="8001.5,9831.09 8574.23,9829.21 8574.22,9605.58 8246.37,9599.39 8232.42,8923.82 8571.86,8910.01 8567.67,8679.3 8233.59,8669.6 8236.43,8330.3 8574.23,8320.29 8574.14,8088.92 8001.21,8085.08 "/>
   <path fill="#137CC5" d="M4603.56 9817.88l237.67 13.21c-0.36,-1374.4 168.24,-883.78 316.88,-1746.01 -470.82,0 -159.53,124.76 -441.62,600 -30.96,-109.07 -56.55,-201.73 -84.37,-305.78 -88.72,-331.83 -15.74,-296.52 -319.72,-291.21 141.38,868.24 291.16,467.05 291.16,1729.79z"/>
   <polygon fill="#137CC5" points="10186.21,9831.09 10759.09,9827.37 10751.04,9603.83 10418.49,9596.32 10418.55,8921.45 10756.47,8909.28 10752.75,8681.25 10418.52,8670.52 10421.32,8328.24 10759.11,8319.34 10759.06,8092.25 10185.67,8085.08 "/>
   <polygon fill="#137CC5" points="179.47,9831.09 753.28,9831.09 741.66,9601.09 414.28,9601.79 412.99,8913.87 749.42,8913.87 745.11,8675.52 413.18,8675.66 418.28,8322.81 754.93,8322.95 732.86,8084.33 198.2,8084.85 "/>
   <path fill="#079DE0" d="M6401.56 3390.28c9.4,43.99 2.2,64.56 3.35,71.77l40.62 372.34c-1.89,212.66 -38.91,389.19 -60.87,565.64 83.35,88.03 176.79,214.05 329.87,176.95 -71.15,-681.57 -94.13,-434.84 477.37,-632.56 -113.59,-276 -452.19,-1112.16 -790.34,-554.14z"/>
   <path fill="#137CC5" d="M3586.1 8330.62l0 1509.28 234.14 0 0.61 -1519.23 291.37 -6.52 0 -229.07 -846.48 0c-0.66,367.87 -14.33,177.63 320.36,245.54z"/>
   <polygon fill="#137CC5" points="6029.57,8314.15 6350.43,8317.16 6350.25,9839.9 6586.11,9825.32 6585.32,8314.15 6876.83,8309.11 6876.55,8095.44 6028.96,8085.08 "/>
   <path fill="#137BC3" d="M6880.02 6772.89c31.96,284.65 -46.89,30.03 -103.28,263.31l444.26 5.96 16.27 -1070.37c-6.21,-25.61 -343.27,-890.92 -354.99,-910.51l-2.26 1711.61z"/>
   <path fill="#1B67B2" d="M4516.23 6588.06c69.82,148.98 277.65,361.35 453.78,429.77 211.02,81.96 581.58,118.77 678.04,-79.45 -92.38,-132.77 -128.98,-59.46 -264.82,-193.07l-464.27 -487.82c-69.03,-96.35 -118.36,-221.29 -203.4,-295.59 10.38,134.28 4.17,322.51 -3.89,411.94 -8.26,91.58 -8.68,225.72 -195.44,214.22z"/>
   <path fill="#1D61AD" d="M6566.52 5210.06c113.42,104.24 50.83,854.56 25.48,976.04 -8.22,245.04 119.97,489.48 288.02,586.79l2.26 -1711.61c-53.22,-63.59 -120.19,-76.69 -210.61,-104.01 -4.97,8.02 -10.02,12.02 -11.81,25.72 -1.78,13.64 -9.12,19.81 -11.53,25.72l-81.81 201.35z"/>
   <path fill="#1772BB" d="M3651.9 5775.61l-52.1 238.69c99.45,129.55 44.85,113.27 44.91,113.59l3.55 861.5 -135.99 11.24c92.52,58.29 272.62,53.44 401.25,45.87 0.78,-282.97 0.27,-565.98 0.27,-848.95l-4.83 -637.54c17.53,-218.22 13.81,-149.58 71.19,-176.68l-106.29 -55.44c-90.83,57.55 -13.29,-72.04 -89.12,104.27 -0.23,0.54 -29.31,125.1 -32.58,138.6 -22.18,91.66 -26.57,173.34 -100.26,204.85z"/>
   <path fill="#0B90D5" d="M3913.52 7046.5c365.82,-25.74 307.11,-15.4 256.11,-251.26 -35.24,-162.97 -37.87,-425.35 -28.55,-595.11 -13.94,-386.23 -7.17,-508.25 -160.93,-816.8 -57.38,27.1 -53.66,-41.54 -71.19,176.68l4.83 637.54c0,282.97 0.51,565.98 -0.27,848.95z"/>
   <path fill="#0997DC" d="M7221 7042.16c157.18,-17.11 260.27,-44.4 354.64,-117.04 -19.47,-284.44 -189.37,-775.72 -338.37,-953.33l-16.27 1070.37z"/>
   <path fill="#2352A1" d="M3512.27 7000.63l135.99 -11.24 -3.55 -861.5c-0.06,-0.32 54.54,15.96 -44.91,-113.59 -48.66,173.54 -103.83,332.86 -157.44,517.63 -27.86,96.02 -59.05,188.01 -76.02,288.27 -32.7,193.17 -29.29,179.66 145.93,180.43z"/>
   <path fill="#FEFEFE" d="M2597.02 9213.49l176.71 10.74c27.81,-188.32 11.31,-376.59 13.16,-557.69 2.4,-234.36 64.51,-374.11 -185.16,-330.05l-4.71 877z"/>
   <path fill="#2A3F90" d="M3651.9 5775.61c73.69,-31.51 78.08,-113.19 100.26,-204.85 3.27,-13.5 32.35,-138.06 32.58,-138.6 75.83,-176.31 -1.71,-46.72 89.12,-104.27 -1.02,-104.03 34.18,-210.73 -46.45,-241.32 -111.68,9.19 -30.96,-19.66 -158.37,49.24 -43.4,23.47 -90.61,57.28 -127.66,78.93 -16.43,223.57 -35.95,419.19 110.52,560.87z"/>
   <path fill="#254C9B" d="M6592 6186.1c25.35,-121.48 87.94,-871.8 -25.48,-976.04 -119.4,75.3 -137.97,88.04 -234.97,215.91 25.17,104.65 102.41,187.74 147.21,329.47 47.53,150.39 67.4,315.05 113.24,430.66z"/>
   <path fill="#0B92D7" d="M7019.2 4078.76l6.15 791.49c244.23,-121.02 197.89,-511.97 127.84,-789.37 -8.2,-3.09 -20.43,-18.35 -24.42,-9.71 -3.93,8.49 -19.85,-6.34 -25.11,-6.21 -34.58,0.86 -45.16,3.23 -84.46,13.8z"/>
   <path fill="#2255A3" d="M6714.53 4576.98c-9.81,169.05 -23.53,160.69 38.89,304.39l134.46 19.73 0.25 -797.62 -113.16 17.79c-4.61,188.67 3.21,294.59 -60.44,455.71z"/>
   <polygon fill="#1772BB" points="6888.13,4103.48 6887.88,4901.1 7025.35,4870.25 7019.2,4078.76 "/>
  </g>
 </g>
</svg>
